HIERARCHY
ROOT Hips
{
	OFFSET 0.000000 0.000000 0.000000
	CHANNELS 6 Xposition Yposition Zposition Zrotation Yrotation Xrotation 
	JOINT LHipJoint
	{
		OFFSET 0.000000 0.000000 0.000000
		CHANNELS 3 Zrotation Yrotation Xrotation
		JOINT LeftUpLeg
		{
			OFFSET 1.363060 -1.794630 0.839290
			CHANNELS 3 Zrotation Yrotation Xrotation
			JOINT LeftLeg
			{
				OFFSET 2.448110 -6.726130 0.000000
				CHANNELS 3 Zrotation Yrotation Xrotation
				JOINT LeftFoot
				{
					OFFSET 2.562200 -7.039590 0.000000
					CHANNELS 3 Zrotation Yrotation Xrotation
					JOINT LeftToeBase
					{
						OFFSET 0.157640 -0.433110 2.322550
						CHANNELS 3 Zrotation Yrotation Xrotation
						End Site
						{
							OFFSET 0.000000 0.000000 0.000000
						}
					}
				}
			}
		}
	}
	JOINT RHipJoint
	{
		OFFSET 0.000000 0.000000 0.000000
		CHANNELS 3 Zrotation Yrotation Xrotation
		JOINT RightUpLeg
		{
			OFFSET -1.305520 -1.794630 0.839290
			CHANNELS 3 Zrotation Yrotation Xrotation
			JOINT RightLeg
			{
				OFFSET -2.542530 -6.985550 0.000000
				CHANNELS 3 Zrotation Yrotation Xrotation
				JOINT RightFoot
				{
					OFFSET -2.568260 -7.056230 0.000000
					CHANNELS 3 Zrotation Yrotation Xrotation
					JOINT RightToeBase
					{
						OFFSET -0.164730 -0.452590 2.363150
						CHANNELS 3 Zrotation Yrotation Xrotation
						End Site
						{
							OFFSET 0.000000 0.000000 0.000000
						}
					}
				}
			}
		}
	}
}
MOTION
Frames: 33
Frame Time: 0.008333
9.913967 21.464821 1.127667 48.265987 -81.233347 -1.647082 -9.226471 -2.694175 3.881751 -7.081673 -9.044187 -95.830707 4.825840 6.849627 98.448105 2.567372 12.124473 -6.542602 0.725000 -0.000000 -44.171600 10.636392 4.381950 2.999076 1.609255 -6.928704 -99.703920 -6.542229 -9.567868 106.259745 -0.698642 -1.020825 -13.516443 0.112200 -0.000000 -68.749100
9.833639 21.488317 1.109667 48.784162 -81.408822 -0.472431 -8.961376 -2.993736 3.899298 -6.703937 -9.609168 -101.199501 5.405204 7.338107 101.291738 2.622199 12.254722 -7.398320 0.589900 0.000000 -42.739899 10.368595 4.699499 3.374501 1.613321 -5.955932 -105.577362 -7.263761 -9.975592 109.070519 -0.681171 -0.840325 -14.427759 0.134800 0.000000 -68.068000
9.746997 21.501835 1.091675 49.320686 -81.601521 0.594250 -8.693097 -3.225768 3.890213 -6.328662 -10.131944 -106.357197 5.958613 7.807667 103.741692 2.663680 12.331055 -8.087418 0.479400 -0.000000 -41.511700 10.088437 4.954105 3.725815 1.559269 -4.937564 -111.235036 -7.916220 -10.337192 111.405903 -0.675860 -0.724745 -15.172098 0.157101 0.000000 -67.461200
9.653989 21.507587 1.073437 49.895976 -81.795839 1.507911 -8.428778 -3.383164 3.851432 -5.992629 -10.635171 -111.231968 6.467909 8.254653 105.790628 2.688252 12.336427 -8.622050 0.393000 -0.000000 -40.557700 9.805758 5.141178 4.035068 1.456233 -3.901371 -116.594649 -8.478901 -10.659283 113.261189 -0.685395 -0.690024 -15.761456 0.182500 0.000000 -66.970500
9.555017 21.507326 1.054618 50.544248 -81.979254 2.202203 -8.175691 -3.465477 3.777310 -5.730042 -11.138291 -115.734662 6.915306 8.675035 107.436505 2.691773 12.250946 -9.019207 0.328700 0.000000 -39.923700 9.530926 5.259801 4.284953 1.317999 -2.875482 -121.560048 -8.934090 -10.949258 114.639898 -0.708623 -0.726965 -16.229993 0.212200 -0.000000 -66.521500
9.450192 21.502661 1.034984 51.289576 -82.138872 2.642354 -7.938906 -3.474584 3.672552 -5.558621 -11.668590 -119.812411 7.284156 9.064636 108.670092 2.671751 12.062840 -9.271103 0.289700 0.000000 -39.653200 9.274169 5.311357 4.471485 1.160700 -1.883012 -126.064883 -9.267601 -11.213243 115.542527 -0.742037 -0.815203 -16.591015 0.244500 0.000000 -66.116901
9.339190 21.494505 1.013838 52.206849 -82.261568 2.760362 -7.722441 -3.412607 3.548994 -5.491036 -12.251263 -123.429243 7.559046 9.419740 109.477920 2.626846 11.767644 -9.353375 0.282200 0.000000 -39.782800 9.047333 5.299236 4.607573 0.985784 -0.943521 -130.075380 -9.469261 -11.454573 115.969300 -0.779288 -0.920960 -16.848246 0.275001 -0.000000 -65.770600
9.222520 21.483913 0.991344 53.272180 -82.341278 2.578357 -7.530126 -3.289666 3.416104 -5.516363 -12.893388 -126.553282 7.728735 9.735291 109.851389 2.557221 11.370433 -9.238197 0.311201 -0.000000 -40.316400 8.857457 5.231172 4.699287 0.811367 -0.079283 -133.544660 -9.531584 -11.674546 115.923752 -0.810010 -0.992244 -17.000388 0.296700 -0.000000 -65.503500
9.099868 21.470941 0.967317 54.495933 -82.372774 2.105197 -7.365219 -3.114125 3.290866 -5.619040 -13.595948 -129.178639 7.786243 10.006841 109.783619 2.464953 10.886980 -8.887503 0.381500 0.000000 -41.242600 8.712389 5.115654 4.767674 0.637789 0.689817 -136.463014 -9.452934 -11.870989 115.413157 -0.822385 -0.975534 -17.029699 0.302000 -0.000001 -65.368600
8.971297 21.455431 0.941802 55.855435 -82.354675 1.378092 -7.230252 -2.896773 3.188732 -5.777069 -14.346062 -131.305433 7.729514 10.229222 109.272961 2.354016 10.342665 -8.266592 0.494799 0.000000 -42.521300 8.616897 4.963676 4.832657 0.462961 1.343211 -138.825561 -9.236736 -12.038743 114.449843 -0.803661 -0.818898 -16.907984 0.284000 0.000000 -65.429400
8.836815 21.436833 0.915349 57.261793 -82.293823 0.504491 -7.127469 -2.651154 3.123053 -5.956829 -15.116547 -132.948787 7.562477 10.396824 108.326442 2.230163 9.769670 -7.348813 0.649200 -0.000000 -44.086900 8.571484 4.786298 4.909221 0.288686 1.866307 -140.631908 -8.890523 -12.171271 113.047951 -0.742372 -0.481819 -16.600252 0.239900 -0.000000 -65.752800
8.696761 21.414559 0.888630 58.608829 -82.200871 -0.397917 -7.057654 -2.392510 3.101963 -6.128811 -15.871893 -134.121843 7.293203 10.503401 106.957281 2.100380 9.202935 -6.120923 0.840000 0.000000 -45.856800 8.573145 4.594937 5.006828 0.114373 2.248128 -141.885452 -8.428680 -12.260764 111.232556 -0.630274 0.057042 -16.069495 0.173300 -0.000000 -66.387600
8.551470 21.388436 0.861875 59.853040 -82.083579 -1.281213 -7.019150 -2.133523 3.128974 -6.281784 -16.580797 -134.834365 6.932911 10.544020 105.184875 1.971921 8.674720 -4.587087 1.060400 0.000000 -47.738700 8.618384 4.400656 5.133975 -0.073221 2.476101 -142.592111 -7.869998 -12.297773 109.031655 -0.464180 0.795570 -15.283100 0.095601 -0.000000 -67.351600
8.401602 21.357830 0.835662 60.909947 -81.955247 -2.063348 -7.009465 -1.887533 3.201663 -6.407445 -17.208794 -135.094507 6.494840 10.514292 103.031288 1.851436 8.210170 -2.769017 1.303800 0.000000 -49.640400 8.699225 4.212491 5.289125 -0.279525 2.549568 -142.755276 -7.236709 -12.274404 106.479287 -0.247211 1.707552 -14.220468 0.026100 -0.000000 -68.614800
8.247940 21.322802 0.810814 61.679799 -81.832586 -2.652495 -7.025384 -1.666897 3.312663 -6.502867 -17.723555 -134.909773 5.993739 10.411294 100.522070 1.743930 7.823867 -0.705063 1.564200 0.000000 -51.481200 8.804849 4.036457 5.462769 -0.502953 2.479185 -142.372899 -6.551138 -12.184934 103.607897 0.010598 2.744290 -12.878066 -0.010801 0.000000 -70.100800
8.091092 21.283369 0.787533 62.145734 -81.724561 -3.045277 -7.062903 -1.476869 3.452105 -6.591040 -18.107545 -134.274574 5.442994 10.235131 97.678824 1.651877 7.518331 1.549315 1.835500 0.000000 -53.191000 8.925865 3.876569 5.646310 -0.751211 2.277900 -141.449469 -5.836809 -12.025203 100.454102 0.293424 3.840484 -11.268586 0.008900 -0.000001 -71.699600
7.931696 21.239273 0.766217 62.273134 -81.641193 -3.223261 -7.118572 -1.319614 3.608133 -6.697499 -18.348994 -133.184092 4.855716 9.988268 94.521584 1.575048 7.285390 3.926313 2.111600 0.000000 -54.723500 9.051611 3.733105 5.825634 -1.019839 1.971665 -139.989087 -5.114378 -11.794840 97.051692 0.581048 4.919606 -9.420031 0.102900 0.000000 -73.284700
7.770355 21.191002 0.747059 62.053713 -81.587197 -3.198286 -7.189252 -1.192491 3.767708 -6.856638 -18.445104 -131.631596 4.243500 9.676271 91.065669 1.510365 7.107701 6.349237 2.384500 0.000000 -56.047700 9.172414 3.604233 5.985543 -1.299685 1.591537 -137.998786 -4.401076 -11.495981 93.430951 0.851229 5.900067 -7.370247 0.276700 0.000000 -74.736000
7.607540 21.138286 0.730308 61.469123 -81.566146 -2.970625 -7.273052 -1.090452 3.917949 -7.101269 -18.396029 -129.610252 3.616736 9.306462 87.323049 1.452518 6.961773 8.740024 2.644200 0.000000 -57.164400 9.279370 3.485511 6.109216 -1.567374 1.175425 -135.491342 -3.709438 -11.134026 89.617172 1.082430 6.702305 -5.159985 0.520100 0.000000 -75.957900
7.443450 21.081362 0.716254 60.506043 -81.577653 -2.540769 -7.369125 -1.005947 4.048483 -7.457213 -18.205599 -127.124761 2.984176 8.888402 83.302223 1.394665 6.820684 11.027828 2.878400 -0.000000 -58.112000 9.365936 3.370637 6.182380 -1.790130 0.761099 -132.491200 -3.047158 -10.716464 85.628856 1.256116 7.254482 -2.826214 0.806200 -0.000000 -76.892500
7.278434 21.019814 0.705015 59.163773 -81.617482 -1.921638 -7.476735 -0.931855 4.147436 -7.946695 -17.875323 -124.179186 2.352250 8.431878 79.010122 1.329070 6.654445 13.154436 3.072200 0.000000 -58.924900 9.427212 3.255011 6.190628 -1.927537 0.377825 -129.021556 -2.417414 -10.250492 81.476045 1.358487 7.499626 -0.396145 1.094200 -0.000000 -77.530599
7.112464 20.953613 0.696679 57.446727 -81.679122 -1.122344 -7.595708 -0.861206 4.207038 -8.576502 -17.405866 -120.795073 1.725175 7.946534 74.453741 1.247924 6.431639 15.087431 3.209700 -0.000000 -59.668800 9.461414 3.133633 6.125691 -1.936859 0.043559 -125.124466 -1.819521 -9.744014 77.160990 1.381942 7.402158 2.113863 1.334800 0.000000 -77.899600
6.945527 20.881918 0.691252 55.374862 -81.753527 -0.161642 -7.725300 -0.789635 4.219778 -9.341512 -16.794074 -116.999559 1.105008 7.439526 69.643800 1.144338 6.120930 16.823496 3.274300 0.000000 -60.403500 9.468918 3.004261 5.982111 -1.778934 -0.242456 -120.841225 -1.250035 -9.203070 72.678211 1.325565 6.953227 4.698472 1.478199 0.000000 -78.059400
6.777677 20.804398 0.688649 52.977163 -81.830959 0.935642 -7.863557 -0.716720 4.178417 -10.220233 -16.034003 -112.830543 0.493096 6.914714 64.600814 1.013246 5.692365 18.388015 3.248900 0.000000 -61.143500 9.451557 2.867804 5.757087 -1.424481 -0.500768 -116.214503 -0.703958 -8.631817 68.017323 1.195658 6.174932 7.359324 1.482600 -0.000000 -78.098600
6.608663 20.719907 0.688558 50.309874 -81.899739 2.127666 -8.007611 -0.644366 4.079935 -11.174657 -15.124267 -108.339575 -0.108067 6.372298 59.357587 0.852960 5.123942 19.840888 3.120500 0.000000 -61.929100 9.413836 2.727453 5.454070 -0.863393 -0.769548 -111.292529 -0.176748 -8.032327 63.169175 1.006186 5.122234 10.100103 1.322300 0.000000 -78.086500
6.438514 20.627214 0.690563 47.438695 -81.948462 3.362989 -8.153152 -0.579343 3.921922 -12.150654 -14.068442 -103.585817 -0.691134 5.809312 53.968824 0.667038 4.406682 21.263592 2.879900 0.000000 -62.778600 9.360897 2.590623 5.077351 -0.107227 -1.100085 -106.122304 0.333705 -7.404568 58.133790 0.777796 3.880541 12.921948 0.995700 0.000000 -78.085200
6.267318 20.524795 0.694023 44.444421 -81.965629 4.581138 -8.295730 -0.531311 3.705555 -13.080144 -12.883501 -98.642437 -1.241004 5.223689 48.521663 0.464952 3.545998 22.739263 2.522299 0.000000 -63.633700 9.299243 2.467342 4.632938 0.808274 -1.546858 -100.755239 0.824685 -6.747706 52.931326 0.535952 2.560063 15.822461 0.530000 0.000001 -78.149300
6.095191 20.411100 0.698160 41.423867 -81.939191 5.711541 -8.431892 -0.510087 3.438256 -13.888058 -11.607884 -93.600002 -1.734403 4.618958 43.136891 0.262680 2.567191 24.343103 2.050700 -0.000000 -64.464999 9.236919 2.368801 4.129356 1.820531 -2.157192 -95.258517 1.286685 -6.063167 47.615990 0.307271 1.285748 18.790907 -0.017401 -0.000000 -78.309899
5.922405 20.283931 0.701929 38.494655 -81.857338 6.672803 -8.560206 -0.522152 3.135133 -14.505124 -10.306425 -88.569367 -2.143649 4.009220 37.969111 0.080269 1.512481 26.118156 1.476300 0.000000 -65.253000 9.183065 2.304733 3.578155 2.842961 -2.957022 -89.724624 1.702944 -5.359394 42.292036 0.114775 0.185192 21.801055 -0.563900 0.000000 -78.568600
5.749331 20.141207 0.704168 35.780448 -81.710270 7.389941 -8.681321 -0.567746 2.818507 -14.882561 -9.066420 -83.681389 -2.444717 3.420393 33.197340 -0.063373 0.431994 28.054446 0.818701 0.000000 -65.921300 9.146547 2.280007 2.996120 3.773309 -3.936950 -84.278971 2.052632 -4.656600 37.119818 -0.026814 -0.626542 24.802696 -1.011300 0.000000 -78.932300
5.576687 19.980621 0.703742 33.408626 -81.492924 7.794543 -8.796152 -0.639402 2.515591 -15.006262 -7.986724 -79.078169 -2.626209 2.884449 28.998583 -0.155594 -0.619260 30.088498 0.109900 0.000000 -66.398800 9.134299 2.292766 2.407905 4.506792 -5.044573 -79.081883 2.316649 -3.988970 32.315594 -0.112832 -1.057045 27.704934 -1.260700 0.000000 -79.369800
5.405047 19.800962 0.699837 31.466185 -81.209388 7.870673 -8.904606 -0.724295 2.252753 -14.899084 -7.153650 -74.902144 -2.693594 2.430310 25.523275 -0.194071 -1.588660 32.108040 -0.606300 0.000000 -66.636900 9.148915 2.333414 1.846344 4.960197 -6.184188 -74.310488 2.485491 -3.398263 28.118808 -0.148024 -1.054659 30.375656 -1.234900 0.000000 -79.902300
5.235459 19.600939 0.692148 29.977065 -80.874916 7.658112 -9.004373 -0.809320 2.048235 -14.613432 -6.618490 -71.274300 -2.665550 2.075627 22.875583 -0.186246 -2.426835 33.969095 -1.276600 0.000001 -66.617100 9.187315 2.388151 1.346109 5.092959 -7.236836 -70.128468 2.562549 -2.922862 24.753936 -0.141727 -0.618310 32.643781 -0.899501 -0.000000 -80.524500
